<svg width="97" height="21" viewBox="0 0 97 21" fill="none" xmlns="http://www.w3.org/2000/svg">
<path fill-rule="evenodd" clip-rule="evenodd" d="M11.458 0.97107C11.0862 1.12406 10.6178 1.36602 10.4172 1.50889C9.44285 2.2027 8.71141 3.47738 8.66536 4.56181L8.63787 5.20825L9.16098 5.17473C10.8069 5.06924 12.4185 3.28894 12.5358 1.4468C12.5928 0.551283 12.5377 0.52693 11.458 0.97107ZM11.1093 5.62056C10.6783 5.74027 9.98898 5.96705 9.57727 6.1245L8.82896 6.41082L7.44458 5.94354C6.21813 5.52954 5.96519 5.483 5.22785 5.53581C4.15656 5.61236 3.22561 6.03613 2.38832 6.82796C1.5995 7.57398 1.17104 8.33905 0.859149 9.55863C0.554857 10.7483 0.557268 11.8514 0.867106 13.3722C1.32173 15.6026 2.36228 17.6848 3.7797 19.2C4.93996 20.4404 5.70479 20.5909 7.372 19.9067C8.51683 19.4369 9.41042 19.4509 10.8611 19.9613C11.733 20.2681 12.1094 20.3443 12.4696 20.2867C13.5304 20.1171 14.1859 19.5608 15.3392 17.8517C15.93 16.976 16.6441 15.5296 16.6518 15.1926C16.6536 15.1142 16.5452 15.0153 16.4111 14.9726C16.2769 14.93 15.8511 14.6026 15.4648 14.245C14.5014 13.3531 14.0913 12.4396 14.0911 11.1853C14.0909 9.85569 14.437 9.03287 15.4033 8.06586L16.1619 7.30658L15.7324 6.83121C15.2252 6.26977 14.0823 5.68011 13.1726 5.51025C12.3083 5.34894 12.0348 5.36365 11.1093 5.62056ZM50.6528 11.1759V16.36H51.557H52.4612V11.1759V5.99188H51.557H50.6528V11.1759ZM67.0238 6.52258C65.4596 6.94358 64.5441 8.33435 64.8878 9.76707C65.1131 10.706 65.8381 11.3576 67.381 12.008C69.0621 12.7166 69.5101 13.2984 69.0881 14.2246C68.737 14.9951 67.1014 15.2223 65.7299 14.6908C65.3691 14.5511 65.0627 14.449 65.049 14.4641C64.9587 14.5627 64.653 15.8049 64.7001 15.8814C64.8286 16.0892 65.9574 16.3825 66.868 16.4446C69.3002 16.6106 70.89 15.5813 71.0056 13.7658C71.0321 13.3491 70.9914 12.8189 70.915 12.5877C70.6413 11.7579 69.7121 11.0553 68.0819 10.4453C67.1338 10.0907 66.6872 9.63687 66.6872 9.02853C66.6872 8.12265 67.6613 7.65608 69.0258 7.90841C69.3977 7.97713 69.8149 8.09383 69.953 8.16773C70.091 8.24164 70.2197 8.28407 70.2388 8.26213C70.3561 8.12759 70.6409 6.88354 70.5705 6.81313C70.3868 6.62988 69.0112 6.35392 68.3195 6.36164C67.919 6.36622 67.336 6.43855 67.0238 6.52258ZM26.6772 6.86172C26.6077 7.07957 25.9315 9.18369 25.1746 11.5376C24.4178 13.8915 23.7601 15.9419 23.7132 16.094C23.6287 16.3678 23.6369 16.3701 24.5659 16.3351L25.5039 16.2997L25.9215 14.9434L26.3391 13.5871H27.9242H29.5093L29.9148 14.9251C30.1378 15.661 30.3836 16.2874 30.4613 16.3172C30.5388 16.347 30.9824 16.3552 31.4471 16.3355L32.2918 16.2997L30.7024 11.417L29.1129 6.5344L27.9582 6.50004L26.8035 6.46568L26.6772 6.86172ZM73.5892 7.70286L72.8357 7.94181V8.59439V9.24698H72.3534H71.8712V9.91006V10.5731H72.3439H72.8165L72.8563 12.7733C72.8908 14.6855 72.9276 15.0356 73.1371 15.4479C73.5389 16.2387 73.8996 16.4203 75.0688 16.4203C75.6242 16.4203 76.126 16.366 76.1839 16.2997C76.2416 16.2334 76.2672 15.9069 76.2404 15.5741L76.1918 14.9691L75.7259 15.0135C75.3519 15.0491 75.1992 14.9972 74.952 14.7499C74.6473 14.4453 74.6441 14.4211 74.6441 12.5075V10.5731H75.488H76.3319V9.91006V9.24698H75.488H74.6441V8.34279C74.6441 7.31924 74.6975 7.35155 73.5892 7.70286ZM28.0523 8.55377C28.0983 8.76921 28.3467 9.61276 28.6043 10.4282C28.8619 11.2438 29.0727 11.9626 29.0727 12.0256C29.0727 12.0907 28.5449 12.1404 27.8542 12.1404C26.8436 12.1404 26.647 12.1107 26.7022 11.9669C26.9382 11.3523 27.645 8.9885 27.7049 8.61405C27.794 8.05791 27.9409 8.03247 28.0523 8.55377ZM36.2459 9.3726C35.9807 9.50269 35.6442 9.74465 35.4982 9.9103C35.3522 10.0759 35.203 10.2115 35.1667 10.2115C35.1304 10.2115 35.1006 9.99445 35.1006 9.72922V9.24698H34.2438C33.512 9.24698 33.3977 9.27483 33.4602 9.43771C33.5005 9.54259 33.5334 11.794 33.5334 14.4409V19.2534H34.4376H35.3418V17.4343V15.6152L35.7004 15.9169C36.2139 16.349 36.836 16.5207 37.6285 16.4488C39.2921 16.2979 40.3447 15.1292 40.5945 13.1555C40.6828 12.4575 40.4825 11.3206 40.1607 10.6937C39.8739 10.135 39.2452 9.54452 38.6911 9.31341C38.0581 9.04926 36.8451 9.07868 36.2459 9.3726ZM44.7146 9.43602C44.3994 9.60022 44.0743 9.84182 43.9924 9.97299C43.765 10.3371 43.6603 10.2603 43.6603 9.72922V9.24698H42.8466L42.0328 9.24686L42.0656 14.2502L42.0983 19.2534H42.9999H43.9015V17.4343V15.6152L44.2601 15.9169C44.7736 16.349 45.3957 16.5207 46.1882 16.4488C47.4672 16.3329 48.4997 15.5089 48.9271 14.2633C49.241 13.3483 49.209 11.7747 48.8604 10.9951C48.5414 10.2816 47.9913 9.67605 47.3724 9.35693C46.7016 9.01129 45.4597 9.04818 44.7146 9.43602ZM56.1985 9.28339C55.9664 9.35621 55.4695 9.72126 55.0941 10.0946C54.2892 10.8951 54.0284 11.5878 54.0284 12.9244C54.0284 14.5862 54.7434 15.7178 56.1127 16.223C57.116 16.5933 59.1352 16.5342 59.9463 16.1107C60.2228 15.9665 59.9835 14.7481 59.7004 14.8583C59.2186 15.0456 58.1381 15.1685 57.582 15.0989C56.8322 15.0053 56.2758 14.6841 55.9568 14.1609C55.4613 13.3483 55.4449 13.3548 58.0973 13.3184L60.4784 13.2857L60.4614 12.3212C60.4422 11.2317 60.2537 10.6857 59.6659 10.0161C59.1051 9.37755 58.4815 9.12968 57.4644 9.14137C57.0002 9.14668 56.4306 9.21057 56.1985 9.28339ZM79.3923 9.31449C78.6881 9.57406 77.9418 10.2567 77.5732 10.9785C77.1545 11.7984 77.0603 13.128 77.3503 14.1255C77.6268 15.077 78.5461 16.0152 79.4705 16.2897C81.3951 16.8613 83.3173 16.071 84.0559 14.4044C84.4525 13.5095 84.458 11.9776 84.0673 11.1157C83.7388 10.3906 83.1935 9.79757 82.5407 9.45519C81.907 9.12293 80.1281 9.04348 79.3923 9.31449ZM88.4176 9.38165C88.2019 9.51981 87.8905 9.85798 87.7255 10.1331L87.4256 10.6334L87.4244 9.9402L87.4234 9.24698H86.6397H85.8561V12.8035V16.36H86.7603H87.6645V14.3858C87.6645 13.3001 87.6997 12.2359 87.7426 12.021C87.7855 11.8063 88.0043 11.4468 88.2288 11.2223C88.5831 10.8681 88.716 10.8143 89.2357 10.8143H89.8345V9.97034V9.12642L89.3222 9.12847C89.0118 9.12968 88.6551 9.2295 88.4176 9.38165ZM92.6439 9.32474C91.1913 9.83929 90.2395 11.8192 90.5685 13.6423C90.7858 14.8464 91.2926 15.5677 92.2915 16.0946C92.855 16.3919 93.0243 16.42 94.235 16.4178C94.9666 16.4165 95.7976 16.345 96.0887 16.2585L96.6162 16.1014L96.5417 15.5577C96.4427 14.8359 96.3944 14.779 96.009 14.931C95.829 15.0019 95.2205 15.0677 94.6569 15.0771C93.8199 15.091 93.555 15.0488 93.2106 14.8465C92.7442 14.5724 92.2457 13.914 92.2457 13.5718C92.2457 13.3665 92.4113 13.3488 94.6268 13.3184L97.0078 13.2857L96.9947 12.3771C96.9737 10.9235 96.3751 9.84351 95.32 9.355C94.7267 9.08025 93.3771 9.06506 92.6439 9.32474ZM58.186 10.5934C58.3688 10.7371 58.5932 11.0338 58.6846 11.2526C59.0069 12.0239 59.0145 12.0198 57.2835 12.0198C56.2865 12.0198 55.7163 11.9745 55.7163 11.8954C55.7163 11.5831 56.0801 10.9545 56.4325 10.6579C56.932 10.2376 57.698 10.2094 58.186 10.5934ZM94.7647 10.6411C95.0691 10.8973 95.3768 11.5418 95.3795 11.9294C95.3799 11.9791 94.675 12.0198 93.813 12.0198C92.816 12.0198 92.2457 11.9745 92.2457 11.8954C92.2457 11.5831 92.6096 10.9545 92.962 10.6579C93.491 10.2127 94.2471 10.2057 94.7647 10.6411ZM37.7157 10.6873C38.3911 10.9939 38.7461 11.6747 38.7536 12.6781C38.7604 13.5858 38.5691 14.1764 38.1329 14.5944C37.2462 15.4438 35.8974 15.1586 35.4704 14.0314C35.3996 13.8447 35.343 13.3022 35.3444 12.8258C35.348 11.6349 35.6388 11.007 36.3323 10.6922C36.9721 10.4019 37.0862 10.4015 37.7157 10.6873ZM46.4621 10.7734C47.2917 11.1912 47.6055 12.9531 47.0536 14.0933C46.4096 15.4237 44.6202 15.4356 44.0677 14.1132C43.8529 13.5992 43.8536 12.1265 44.069 11.6111C44.492 10.5988 45.4499 10.2635 46.4621 10.7734ZM81.7391 10.7573C82.2715 11.2053 82.5186 11.9581 82.4585 12.9479C82.3704 14.3953 81.7685 15.1529 80.7064 15.1539C80.007 15.1545 79.415 14.632 79.1664 13.795C78.9482 13.0602 78.9424 12.83 79.121 11.9956C79.2221 11.5241 79.3763 11.2384 79.7096 10.9047C80.1123 10.5018 80.2275 10.4526 80.7692 10.4526C81.2434 10.4526 81.4565 10.5196 81.7391 10.7573Z" fill="#0F0305"/>
</svg>
