<svg width="103" height="25" viewBox="0 0 103 25" fill="none" xmlns="http://www.w3.org/2000/svg">
<path fill-rule="evenodd" clip-rule="evenodd" d="M0.437878 0.725496C0.16478 1.01901 0.0078125 1.47077 0.0078125 2.05781V22.9383C0.0078125 23.5254 0.16478 23.9771 0.448087 24.2604L0.522104 24.323L12.2219 12.6231V12.3602L0.511895 0.662964L0.437878 0.725496Z" fill="url(#paint0_linear_1745_58385)"/>
<path fill-rule="evenodd" clip-rule="evenodd" d="M16.1134 16.5383L12.2109 12.6345V12.3614L16.1147 8.45764L16.1989 8.50996L20.8161 11.1337C22.1382 11.879 22.1382 13.1067 20.8161 13.8622L16.1989 16.486C16.1977 16.486 16.1134 16.5383 16.1134 16.5383Z" fill="url(#paint1_linear_1745_58385)"/>
<path fill-rule="evenodd" clip-rule="evenodd" d="M16.1981 16.486L12.2113 12.498L0.4375 24.2719C0.867566 24.7339 1.59115 24.7862 2.40023 24.3344L16.1981 16.486Z" fill="url(#paint2_linear_1745_58385)"/>
<path fill-rule="evenodd" clip-rule="evenodd" d="M16.1981 8.51128L2.40023 0.673117C1.59242 0.211147 0.867566 0.273679 0.4375 0.735649L12.2101 12.498L16.1981 8.51128Z" fill="url(#paint3_linear_1745_58385)"/>
<path opacity="0.2" fill-rule="evenodd" clip-rule="evenodd" d="M16.1134 16.4017L2.41 24.1876C1.6443 24.6279 0.961558 24.5972 0.521283 24.1978L0.447266 24.2718L0.521283 24.3343C0.961558 24.7325 1.6443 24.7644 2.41 24.3241L16.2078 16.486L16.1134 16.4017Z" fill="#0F0305"/>
<path opacity="0.12" fill-rule="evenodd" clip-rule="evenodd" d="M20.8151 13.7257L16.1035 16.4018L16.1877 16.486L20.8049 13.8623C21.4659 13.4845 21.7914 12.9919 21.7914 12.498C21.7492 12.9498 21.4136 13.3799 20.8151 13.7257Z" fill="#0F0305"/>
<path opacity="0.25" fill-rule="evenodd" clip-rule="evenodd" d="M2.40061 0.809664L20.8156 11.2716C21.4141 11.6072 21.7497 12.0475 21.8021 12.4993C21.8021 12.0067 21.4766 11.5128 20.8156 11.1351L2.40061 0.673115C1.07851 -0.0823707 0.0078125 0.546776 0.0078125 2.05775V2.1943C0.0078125 0.683325 1.07851 0.0643876 2.40061 0.809664Z" fill="white"/>
<path fill-rule="evenodd" clip-rule="evenodd" d="M24.8111 10.7446C24.8111 7.39984 27.6225 4.67651 30.9673 4.67651C32.8165 4.67651 34.1322 5.40265 35.1251 6.34828L33.9561 7.51724C33.2466 6.85109 32.2843 6.33424 30.9661 6.33424C28.5235 6.33424 26.6144 8.30081 26.6144 10.7434C26.6144 13.1859 28.5235 15.1551 30.9648 15.1551C32.5485 15.1551 33.4495 14.5195 34.0276 13.9402C34.501 13.4667 34.8111 12.7865 34.9311 11.8536H30.9673V10.1997H36.5467C36.6054 10.4958 36.636 10.8506 36.636 11.2347C36.636 12.4764 36.2953 14.0167 35.1991 15.1129C34.1322 16.2232 32.7718 16.8153 30.9661 16.8153C27.62 16.8153 24.8086 14.0946 24.8086 10.7472L24.8111 10.7446ZM41.146 8.99886C38.9854 8.99886 37.2218 10.6426 37.2218 12.9052C37.2218 15.1563 38.9842 16.8115 41.146 16.8115C43.3078 16.8115 45.0676 15.1538 45.0676 12.9039C45.0676 10.6413 43.3065 8.99759 41.146 8.99886ZM41.146 15.275C39.963 15.275 38.9408 14.2988 38.9408 12.9065C38.9408 11.5001 39.9617 10.5379 41.146 10.5379C42.329 10.5379 43.3499 11.4989 43.3499 12.9065C43.3499 14.2975 42.3303 15.275 41.146 15.275ZM49.7026 8.99886C47.5421 8.99886 45.781 10.6426 45.781 12.9052C45.781 15.1563 47.5421 16.8115 49.7026 16.8115C51.8632 16.8115 53.6243 15.1538 53.6243 12.9039C53.6243 10.6413 51.8644 8.99759 49.7026 8.99886ZM49.7026 15.275C48.5196 15.275 47.4974 14.2988 47.4974 12.9065C47.4974 11.5001 48.5184 10.5379 49.7026 10.5379C50.8856 10.5379 51.9078 11.4989 51.9078 12.9065C51.9078 14.2975 50.8856 15.275 49.7026 15.275ZM60.2041 9.23623V9.87176H60.1454C59.7613 9.41106 59.0211 8.99759 58.0895 8.99759C56.1357 8.99759 54.3427 10.7153 54.3427 12.9218C54.3427 15.1104 56.1345 16.8141 58.0895 16.8141C59.0211 16.8141 59.7613 16.4006 60.1454 15.9271H60.2041V16.4886C60.2041 17.983 59.4053 18.7832 58.1176 18.7832C57.0661 18.7832 56.4152 18.0277 56.1485 17.3934L54.6528 18.0149C55.0816 19.0499 56.2225 20.3235 58.1163 20.3235C60.1276 20.3235 61.83 19.1379 61.83 16.2526V9.23495L60.2041 9.23623ZM58.2363 15.275C57.0533 15.275 56.0592 14.2822 56.0592 12.9218C56.0592 11.5461 57.052 10.5392 58.2363 10.5392C59.4053 10.5392 60.3228 11.5448 60.3228 12.9218C60.3241 14.2822 59.4065 15.275 58.2363 15.275ZM63.0155 5.09127H64.7332V16.5767H63.0155V5.09127ZM69.441 15.275C68.5681 15.275 67.9453 14.8743 67.5484 14.092L72.773 11.9289L72.5931 11.4848C72.2689 10.6132 71.2761 8.99886 69.2483 8.99886C67.2358 8.99886 65.5627 10.5826 65.5627 12.9065C65.5627 15.0951 67.2205 16.8128 69.441 16.8128C71.2327 16.8128 72.2689 15.7191 72.6977 15.081L71.3654 14.1941C70.92 14.8462 70.3126 15.2763 69.441 15.275ZM69.307 10.5086C69.9872 10.5086 70.564 10.8493 70.7567 11.3368L67.2626 12.7878C67.2192 11.2781 68.4328 10.5086 69.307 10.5086Z" fill="#5E626E"/>
<path fill-rule="evenodd" clip-rule="evenodd" d="M80.3098 5.09131H76.2031V16.5767H77.917V12.2263H80.3111C82.2113 12.2263 84.0796 10.8506 84.0796 8.65817C84.0796 6.46956 82.2126 5.09258 80.3136 5.09258L80.3098 5.09131ZM80.3545 10.6273H77.917V6.68906H80.3545C81.6357 6.68906 82.3657 7.7521 82.3657 8.65817C82.3657 9.54893 81.6357 10.6273 80.3545 10.6273ZM86.7378 16.5767V5.09131H85.0239V16.5767H86.7378ZM94.4369 16.5563V12.1536C94.4369 10.1143 92.9131 8.97721 90.9466 8.97721C89.7074 8.97721 88.4223 9.52468 87.8902 10.7358L89.4114 11.37C89.7368 10.7358 90.3417 10.5277 90.9785 10.5277C91.8641 10.5277 92.7651 11.0599 92.7792 12.0068V12.1255C92.469 11.9481 91.8054 11.6814 90.9913 11.6814C89.3514 11.6814 87.6822 12.5824 87.6822 14.2669C87.6822 15.8047 89.0272 16.7937 90.5344 16.7937C91.688 16.7937 92.3223 16.2768 92.7204 15.6719H92.7792V16.5589H94.4356L94.4369 16.5563ZM90.7424 15.2725C90.1809 15.2725 89.3973 14.9917 89.3973 14.2988C89.3973 13.4119 90.3736 13.0699 91.2159 13.0699C91.9701 13.0699 92.3236 13.2319 92.783 13.454C92.6515 14.4851 91.7799 15.2597 90.7424 15.2725ZM100.464 9.22862L98.4989 14.2069H98.4402L96.4009 9.22862H94.5543L97.612 16.1888L95.8675 20.0594H97.6554L102.368 9.22862H100.464Z" fill="#5E626E"/>
<defs>
<linearGradient id="paint0_linear_1745_58385" x1="11.1713" y1="1.83336" x2="-7.56976" y2="6.82694" gradientUnits="userSpaceOnUse">
<stop stop-color="#00A0FF"/>
<stop offset="0.007" stop-color="#00A1FF"/>
<stop offset="0.26" stop-color="#00BEFF"/>
<stop offset="0.512" stop-color="#00D2FF"/>
<stop offset="0.76" stop-color="#00DFFF"/>
<stop offset="1" stop-color="#00E3FF"/>
</linearGradient>
<linearGradient id="paint1_linear_1745_58385" x1="22.5365" y1="12.4985" x2="-0.314295" y2="12.4985" gradientUnits="userSpaceOnUse">
<stop stop-color="#FFE000"/>
<stop offset="0.409" stop-color="#FFBD00"/>
<stop offset="0.775" stop-color="#FFA500"/>
<stop offset="1" stop-color="#FF9C00"/>
</linearGradient>
<linearGradient id="paint2_linear_1745_58385" x1="14.0302" y1="14.6675" x2="-1.01523" y2="39.99" gradientUnits="userSpaceOnUse">
<stop stop-color="#FF3A44"/>
<stop offset="1" stop-color="#C31162"/>
</linearGradient>
<linearGradient id="paint3_linear_1745_58385" x1="-2.52627" y1="-6.22043" x2="4.18596" y2="5.08897" gradientUnits="userSpaceOnUse">
<stop stop-color="#32A071"/>
<stop offset="0.069" stop-color="#2DA771"/>
<stop offset="0.476" stop-color="#15CF74"/>
<stop offset="0.801" stop-color="#06E775"/>
<stop offset="1" stop-color="#00F076"/>
</linearGradient>
</defs>
</svg>
