<svg width="16" height="16" viewBox="0 0 16 16" fill="none" xmlns="http://www.w3.org/2000/svg">
<path d="M8.82323 0C9.72319 0.00239994 10.18 0.00719983 10.5743 0.0183996L10.7295 0.0239994C10.9087 0.0303993 11.0855 0.0383991 11.2991 0.0479988C12.1503 0.0879979 12.731 0.222395 13.2406 0.41999C13.7686 0.623186 14.2134 0.898379 14.6581 1.34237C15.0649 1.74228 15.3797 2.22602 15.5805 2.75994C15.7781 3.26952 15.9125 3.85031 15.9525 4.70229C15.9621 4.91508 15.9701 5.09188 15.9765 5.27188L15.9813 5.42707C15.9933 5.82066 15.9981 6.27745 15.9997 7.17743L16.0005 7.77422V8.82219C16.0024 9.4057 15.9963 9.98921 15.9821 10.5726L15.9773 10.7277C15.9709 10.9077 15.9629 11.0845 15.9533 11.2973C15.9133 12.1493 15.7773 12.7293 15.5805 13.2397C15.3802 13.7739 15.0654 14.2578 14.6581 14.6573C14.2581 15.0639 13.7744 15.3786 13.2406 15.5796C12.731 15.7772 12.1503 15.9116 11.2991 15.9516C11.1093 15.9606 10.9194 15.9686 10.7295 15.9756L10.5743 15.9804C10.18 15.9916 9.72319 15.9972 8.82323 15.9988L8.22646 15.9996H7.17932C6.59556 16.0016 6.0118 15.9955 5.42821 15.9812L5.27302 15.9764C5.08311 15.9692 4.89325 15.961 4.70344 15.9516C3.85229 15.9116 3.27152 15.7772 2.76114 15.5796C2.22731 15.3791 1.74377 15.0643 1.34442 14.6573C0.937274 14.2575 0.622233 13.7737 0.421264 13.2397C0.223674 12.7301 0.089281 12.1493 0.049283 11.2973C0.0403706 11.1075 0.0323709 10.9176 0.0252843 10.7277L0.0212846 10.5726C0.006543 9.98922 -0.000124044 9.40571 0.00128555 8.82219V7.17743C-0.000947107 6.59393 0.00491988 6.01042 0.0188847 5.42707L0.0244844 5.27188C0.0308841 5.09188 0.0388836 4.91508 0.0484831 4.70229C0.0884811 3.85031 0.222874 3.27032 0.420464 2.75994C0.621345 2.22547 0.937014 1.74158 1.34522 1.34237C1.74447 0.935557 2.22769 0.620775 2.76114 0.41999C3.27152 0.222395 3.85149 0.0879979 4.70344 0.0479988C4.91623 0.0383991 5.09382 0.0303993 5.27302 0.0239994L5.42821 0.0191995C6.01153 0.00498605 6.59502 -0.00114773 7.17852 0.000799923L8.82323 0ZM8.00088 3.99991C6.94006 3.99991 5.9227 4.42132 5.17259 5.17145C4.42249 5.92158 4.00108 6.93897 4.00108 7.99981C4.00108 9.06065 4.42249 10.078 5.17259 10.8282C5.9227 11.5783 6.94006 11.9997 8.00088 11.9997C9.06169 11.9997 10.0791 11.5783 10.8292 10.8282C11.5793 10.078 12.0007 9.06065 12.0007 7.99981C12.0007 6.93897 11.5793 5.92158 10.8292 5.17145C10.0791 4.42132 9.06169 3.99991 8.00088 3.99991ZM8.00088 5.59987C8.31603 5.59982 8.62811 5.66184 8.9193 5.7824C9.21049 5.90296 9.47508 6.0797 9.69796 6.30251C9.92085 6.52533 10.0977 6.78987 10.2183 7.08103C10.339 7.37218 10.4011 7.68425 10.4012 7.99941C10.4012 8.31458 10.3392 8.62667 10.2186 8.91786C10.0981 9.20906 9.92134 9.47365 9.69853 9.69655C9.47572 9.91944 9.21118 10.0963 8.92004 10.2169C8.62889 10.3376 8.31683 10.3997 8.00168 10.3998C7.36519 10.3998 6.75477 10.1469 6.30471 9.69683C5.85464 9.24675 5.6018 8.63632 5.6018 7.99981C5.6018 7.36331 5.85464 6.75287 6.30471 6.3028C6.75477 5.85272 7.36519 5.59987 8.00168 5.59987M12.2015 2.79993C11.9363 2.79993 11.6819 2.90529 11.4944 3.09282C11.3069 3.28035 11.2015 3.5347 11.2015 3.79991C11.2015 4.06512 11.3069 4.31947 11.4944 4.507C11.6819 4.69453 11.9363 4.79989 12.2015 4.79989C12.4667 4.79989 12.721 4.69453 12.9085 4.507C13.0961 4.31947 13.2014 4.06512 13.2014 3.79991C13.2014 3.5347 13.0961 3.28035 12.9085 3.09282C12.721 2.90529 12.4667 2.79993 12.2015 2.79993Z" fill="#A12134"/>
</svg>
