<svg width="18" height="13" viewBox="0 0 18 13" fill="none" xmlns="http://www.w3.org/2000/svg">
<path fill-rule="evenodd" clip-rule="evenodd" d="M17.0004 9.51026C17.0004 9.51026 16.8326 10.6991 16.3177 11.2226C15.6648 11.9097 14.9329 11.9131 14.5972 11.9533C12.1942 12.1278 8.58591 12.1332 8.58591 12.1332C8.58591 12.1332 4.12137 12.0923 2.74753 11.96C2.36538 11.888 1.5073 11.9097 0.854128 11.2226C0.339264 10.6991 0.171717 9.51026 0.171717 9.51026C0.171717 9.51026 0 8.11433 0 6.71824V5.4095C0 4.01349 0.171717 2.61749 0.171717 2.61749C0.171717 2.61749 0.339264 1.42871 0.854128 0.9052C1.5073 0.218085 2.23905 0.214675 2.5747 0.174452C4.97775 -3.27826e-07 8.58219 0 8.58219 0H8.58963C8.58963 0 12.1942 -3.27826e-07 14.5972 0.174452C14.9329 0.214675 15.6648 0.218085 16.3177 0.9052C16.8326 1.42871 17.0004 2.61749 17.0004 2.61749C17.0004 2.61749 17.1718 4.01349 17.1718 5.4095V6.71824C17.1718 8.11433 17.0004 9.51026 17.0004 9.51026ZM6.79303 3.59949V8.45804L11.3508 5.97773L6.79303 3.59949Z" fill="#A12134"/>
</svg>
