<svg width="16" height="16" viewBox="0 0 16 16" fill="none" xmlns="http://www.w3.org/2000/svg">
<path d="M3.47836 15.8334H0.333983V5.70744H3.47836V15.8334ZM1.90427 4.32619C0.898941 4.32619 0.0831909 3.4931 0.0831909 2.48777C0.0831909 2.00479 0.275055 1.54159 0.616574 1.20007C0.958093 0.858551 1.42129 0.666687 1.90427 0.666687C2.38726 0.666687 2.85046 0.858551 3.19197 1.20007C3.53349 1.54159 3.72536 2.00479 3.72536 2.48777C3.72536 3.4931 2.90961 4.32619 1.90427 4.32619ZM15.2466 15.8334H12.1093V10.9042C12.1093 9.72931 12.0854 8.22294 10.4745 8.22294C8.83978 8.22294 8.58898 9.4991 8.58898 10.8197V15.8334H5.44786V5.70744H8.46332V7.08869H8.50719C8.92698 6.29298 9.95236 5.45339 11.482 5.45339C14.6643 5.45339 15.2493 7.5491 15.2493 10.271V15.8334H15.2466Z" fill="#A12134"/>
</svg>
